<svg width="219" height="119" viewBox="0 0 219 119" fill="none" xmlns="http://www.w3.org/2000/svg">
<path d="M35.36 90.52H0.5V73.3L30.04 2.59999H57.2V73.16H67.7V90.52H57.2V116H35.36V90.52ZM35.36 73.16V25.98L18.28 73.16H35.36ZM108.918 118.1C98.9313 118.1 91.278 115.16 85.958 109.28C80.638 103.4 77.978 95.5133 77.978 85.62V34.24C77.978 23.88 80.5446 15.76 85.678 9.88C90.9046 3.90666 98.6513 0.919996 108.918 0.919996C119.185 0.919996 126.885 3.90666 132.018 9.88C137.151 15.76 139.718 23.88 139.718 34.24V85.62C139.718 95.42 137.011 103.307 131.598 109.28C126.278 115.16 118.718 118.1 108.918 118.1ZM108.918 97.24C111.811 97.24 113.678 96.0267 114.518 93.6C115.451 91.1733 115.918 88.3267 115.918 85.06V34.8C115.918 31.0667 115.498 27.9867 114.658 25.56C113.911 23.04 111.998 21.78 108.918 21.78C105.838 21.78 103.878 22.9933 103.038 25.42C102.291 27.8467 101.918 30.9733 101.918 34.8V85.06C101.918 93.18 104.251 97.24 108.918 97.24ZM185.751 90.52H150.891V73.3L180.431 2.59999H207.591V73.16H218.091V90.52H207.591V116H185.751V90.52ZM185.751 73.16V25.98L168.671 73.16H185.751Z" fill="black" fill-opacity="0.12"/>
</svg>
